<svg width="3.5em" height="3.5em" version="1.1" viewBox="0 0 67.733 67.733" xmlns="http://www.w3.org/2000/svg" xmlns:xlink="http://www.w3.org/1999/xlink">
 <defs>
  <linearGradient id="logo-gradient" x1="57.52" x2="52.032" y1="23.396" y2="28.806" gradientTransform="matrix(9.9813 0 0 9.9813 -506.86 -233.39)" gradientUnits="userSpaceOnUse">
   <stop stop-color="var(--color-blossom)" offset="0"/>
   <stop stop-color="var(--color-fade)" offset="1"/>
  </linearGradient>
 </defs>
 <g>
  <path d="m58.539 46.06-3.5338-2.0404 3.2768-1.3653c0.76287-0.318 1.1239-1.1941 0.80589-1.9572-0.3182-0.76327-1.1941-1.1231-1.9572-0.80589l-5.3877 2.2448-9.5254-5.4995 5.6806-2.0827c0.58899-0.21599 0.98096-0.77654 0.98136-1.404 4.29e-4 -0.62762-0.39046-1.1887-0.97916-1.4056l-5.695-2.0979 9.4228-5.4404 5.3686 2.0772c0.17757 0.06886 0.36023 0.10082 0.53949 0.10082 0.60027 0 1.1668-0.36372 1.3963-0.9571 0.29814-0.77085-0.08485-1.6375-0.85589-1.9358l-3.12-1.2071 3.5824-2.0684c0.71576-0.41322 0.9611-1.3286 0.54787-2.0444-0.41302-0.71596-1.3288-0.9609-2.0444-0.54787l-3.5339 2.0406 0.45604-3.5205c0.1063-0.81966-0.47221-1.5703-1.2919-1.6764-0.82056-0.10809-1.5705 0.47221-1.6764 1.2919l-0.74959 5.7884-9.5254 5.4997 1.0365-5.9606c0.10759-0.61834-0.18206-1.2378-0.72514-1.5519-0.54318-0.31431-1.2578-0.25642-1.7401 0.14552l-4.6978 3.8835v-10.416l4.6713-3.5437c0.65677-0.50206 0.799-1.4412 0.29724-2.0981-0.50206-0.65687-1.4659-0.78253-2.1228-0.28067l-2.8456 2.1552v-4.28c0-0.82675-0.66994-1.4966-1.4966-1.4966-0.82675 0-1.4967 0.66994-1.4967 1.4966v4.3367l-2.5723-2.0985c-0.64359-0.51903-1.5695-0.41692-2.0877 0.22687-0.51852 0.64379-0.44197 1.5858 0.20212 2.1043l4.4582 3.6109v10.267l-4.6105-3.8777c-0.4819-0.40254-1.1466-0.46134-1.69-0.14793-0.54378 0.31321-0.82575 0.93245-0.71915 1.5507l1.0347 5.981-9.0174-5.2075-0.74939-5.7884c-0.106-0.81966-0.85619-1.3989-1.676-1.2919-0.81946 0.1062-1.3979 0.85689-1.2915 1.6764l0.45624 3.5201-3.7063-2.1398c-0.71616-0.41322-1.6313-0.16817-2.0444 0.54787-0.41322 0.71576-0.16809 1.6311 0.54787 2.0444l3.7558 2.1683-3.1204 1.2073c-0.77085 0.29834-1.154 1.165-0.85589 1.9359 0.22937 0.59349 0.79601 0.9571 1.3963 0.9571 0.17956 0 0.36212-0.03294 0.53949-0.10082l5.3687-2.0771 8.8916 5.1335-5.6802 2.0827c-0.58909 0.21609-0.98106 0.77674-0.98136 1.404-4.28e-4 0.62762 0.39047 1.1887 0.97916 1.4057l5.695 2.0979-9.0195 5.2075-5.3879-2.2446c-0.76227-0.3182-1.6391 0.04291-1.957 0.80599-0.3182 0.76297 0.042911 1.6391 0.80609 1.957l3.2767 1.3651-3.7067 2.1402c-0.71576 0.41322-0.961 1.3286-0.54787 2.0444 0.27718 0.4801 0.78024 0.74859 1.2975 0.74859 0.25392 0 0.51144-0.06588 0.7468-0.20072l3.7556-2.1683-0.51463 3.3058c-0.12727 0.81677 0.43209 1.5818 1.2488 1.709 0.07785 0.01291 0.15521 0.01797 0.23196 0.01797 0.72514 0 1.3619-0.52781 1.4771-1.2668l0.88514-5.6878 8.8921-5.1337-1.0365 5.9606c-0.10759 0.61824 0.18196 1.2378 0.72514 1.5519 0.54268 0.31391 1.1909 0.25592 1.6737-0.14553l4.6307-3.8835v10.881l-4.4498 3.6109c-0.64399 0.51843-0.72873 1.4605-0.21001 2.1043 0.51823 0.64359 1.4356 0.7451 2.0794 0.22687l2.5808-2.0987v4.1371c0 0.82674 0.66994 1.4966 1.4966 1.4966 0.82675 0 1.4966-0.66994 1.4966-1.4966v-4.0801l2.8538 2.1551c0.27119 0.20711 0.60726 0.30752 0.92416 0.30732 0.45066 0 0.9042-0.20252 1.1987-0.5879 0.50186-0.65706 0.34705-1.596-0.30962-2.0981l-4.6669-3.5437v-10.999l4.6773 3.8783c0.27568 0.23007 0.63321 0.34785 0.97627 0.34785 0.25652 0 0.52272-0.06588 0.75548-0.19992 0.54368-0.31321 0.83843-0.93245 0.73153-1.5509l-1.0287-5.9808 9.4239 5.4404 0.88574 5.6878c0.11529 0.73871 0.75229 1.2667 1.4775 1.2667 0.07585 0 0.15412-0.0057 0.23196-0.01796 0.81676-0.12747 1.3759-0.89242 1.2488-1.709l-0.51463-3.3058 3.5826 2.0684c0.23586 0.13615 0.49308 0.20072 0.7468 0.20072 0.51723 0 1.0204-0.2685 1.2975-0.7486 0.41342-0.71595 0.16828-1.6313-0.54767-2.0446zm-15.495-12.914-4.204 1.5413-2.6824-1.5489 2.6742-1.5439zm-4.9669-8.5594-0.78373 4.4109-2.6993 1.5487v-3.0879zm-9.8794-0.0079 3.4034 2.87v3.0974l-2.6579-1.5441zm-4.913 8.5522 4.2035-1.5413 2.6828 1.5489-2.6742 1.5439zm4.9002 8.5594 0.75049-4.4109 2.6656-1.5485v3.0881zm9.8794 0.0077-3.47-2.87v-3.0975l2.6914 1.5441z" fill="{% if include.color %}{{ include.color }}{% else %} url(#logo-gradient){% endif %}" stroke-width=".19955"/>
 </g>
</svg>
